<?xml version="1.0" standalone="no"?>
<!DOCTYPE svg PUBLIC "-//W3C//DTD SVG 20010904//EN"
 "http://www.w3.org/TR/2001/REC-SVG-20010904/DTD/svg10.dtd">
<svg version="1.0" xmlns="http://www.w3.org/2000/svg"
 width="1600.000000pt" height="1600.000000pt" viewBox="0 0 1600.000000 1600.000000"
 preserveAspectRatio="xMidYMid meet">
<metadata>
Created by potrace 1.14, written by Peter Selinger 2001-2017
</metadata>
<g transform="translate(0.000000,1600.000000) scale(0.100000,-0.100000)"
fill="#000000" stroke="none">
<path d="M146 11602 c-2 -4 -3 -1680 -3 -3724 l0 -3718 763 0 764 0 0 2433 0
2433 31 0 c28 -1 33 -6 50 -51 10 -27 23 -58 29 -68 6 -10 8 -22 5 -27 -3 -4
-1 -10 3 -12 5 -1 24 -41 41 -88 18 -47 39 -98 46 -115 8 -16 25 -61 40 -100
15 -38 39 -101 55 -140 51 -122 142 -350 144 -360 4 -16 26 -67 42 -99 8 -16
14 -37 14 -48 0 -10 4 -18 9 -18 5 0 11 -10 13 -22 3 -13 101 -261 218 -553
117 -291 213 -534 214 -540 1 -5 10 -25 19 -42 10 -18 15 -33 12 -33 -3 0 2
-11 11 -25 9 -14 13 -25 9 -25 -4 0 -3 -6 2 -12 5 -7 25 -51 43 -98 18 -47 40
-103 50 -125 9 -22 24 -58 31 -80 8 -22 16 -42 19 -45 3 -3 6 -9 7 -15 1 -8
86 -222 118 -300 5 -11 9 -22 9 -25 1 -6 94 -237 106 -265 5 -11 19 -45 30
-75 11 -30 25 -64 30 -75 5 -11 28 -67 50 -125 22 -58 46 -116 52 -130 38 -87
57 -140 50 -140 -4 0 -2 -4 3 -8 6 -4 23 -41 39 -82 16 -41 34 -88 41 -105 7
-16 27 -66 44 -110 18 -44 36 -89 41 -100 5 -11 54 -134 110 -274 56 -140 104
-259 108 -265 5 -8 168 -11 524 -11 l516 0 22 55 c12 30 27 69 34 85 8 17 44
107 81 200 78 199 76 193 107 270 33 80 53 129 53 135 1 3 9 23 19 45 9 22 42
103 72 180 31 77 64 159 75 182 10 24 19 47 19 53 0 6 5 18 10 28 6 9 67 159
136 332 69 173 131 326 136 340 6 14 12 30 14 35 2 10 127 322 144 360 33 75
85 211 82 218 -1 4 3 7 10 7 6 0 9 3 5 6 -3 3 8 37 24 75 33 77 46 110 48 121
1 5 13 34 27 65 14 32 27 63 28 68 2 6 8 21 13 35 6 14 25 61 42 105 18 44 38
94 46 112 8 17 15 33 15 36 0 2 8 22 17 43 9 22 17 41 18 44 3 8 16 43 30 75
21 51 140 350 141 355 0 3 5 16 11 30 6 14 43 106 83 205 39 99 75 189 80 200
5 11 25 61 45 110 20 50 40 99 45 110 24 56 121 306 122 315 0 3 6 16 13 30 7
14 24 52 38 85 22 54 27 60 54 62 l30 1 1 -2411 c0 -1327 1 -2418 1 -2424 1
-10 161 -13 764 -13 l762 0 0 3722 0 3723 -971 2 -971 1 -19 -46 c-10 -26 -18
-50 -17 -54 2 -5 -2 -8 -7 -8 -6 0 -10 -6 -10 -12 0 -7 -23 -69 -52 -138 -28
-69 -78 -190 -111 -270 -32 -80 -65 -158 -72 -175 -8 -16 -28 -66 -45 -110
-18 -44 -38 -93 -45 -110 -7 -16 -27 -66 -45 -110 -17 -44 -36 -89 -40 -100
-31 -69 -92 -222 -94 -233 -1 -7 -8 -18 -14 -24 -7 -7 -12 -17 -12 -24 0 -6
-8 -29 -17 -50 -9 -22 -17 -41 -18 -44 -1 -3 -9 -22 -18 -44 -9 -21 -17 -41
-17 -43 0 -3 -7 -19 -15 -36 -29 -64 -97 -233 -102 -254 -3 -13 -9 -23 -14
-23 -5 0 -8 -3 -8 -7 1 -5 0 -11 -1 -15 -1 -5 -3 -11 -5 -15 -1 -5 -7 -20 -13
-35 -6 -15 -26 -65 -45 -110 -19 -46 -38 -92 -42 -103 -5 -11 -9 -22 -9 -25
-1 -3 -7 -14 -13 -25 -5 -11 -16 -38 -23 -60 -7 -22 -19 -49 -25 -60 -7 -11
-18 -38 -25 -60 -7 -22 -17 -45 -22 -51 -5 -7 -10 -20 -13 -30 -2 -11 -13 -41
-25 -69 -12 -27 -26 -60 -31 -72 -5 -13 -13 -33 -18 -45 -5 -13 -19 -45 -31
-73 -12 -27 -23 -54 -24 -60 -2 -5 -8 -23 -15 -40 -22 -55 -112 -270 -121
-290 -4 -11 -43 -105 -85 -210 -43 -104 -83 -203 -90 -220 -7 -16 -23 -55 -35
-85 -12 -30 -28 -68 -35 -85 -7 -16 -43 -104 -80 -195 -36 -91 -75 -184 -86
-207 -10 -24 -19 -46 -19 -50 0 -4 -8 -25 -19 -47 -25 -56 -150 -361 -170
-416 -9 -25 -19 -46 -23 -48 -5 -2 -8 -10 -8 -17 0 -7 -13 -42 -29 -78 -16
-36 -27 -68 -24 -71 4 -3 1 -6 -5 -6 -7 0 -12 -6 -12 -14 0 -8 -8 -34 -19 -58
-19 -45 -29 -49 -97 -40 -7 1 -20 21 -29 45 -9 23 -22 53 -28 67 -6 14 -11 27
-12 30 -2 7 -24 61 -32 80 -3 8 -7 17 -7 20 -1 3 -7 15 -14 28 -7 12 -10 22
-6 22 3 0 2 6 -4 13 -5 6 -31 64 -56 127 -26 63 -53 129 -61 147 -8 17 -15 35
-15 40 0 5 -9 27 -19 49 -11 22 -54 125 -96 229 -42 105 -84 208 -94 230 -10
22 -56 135 -102 250 -46 116 -88 213 -92 216 -5 3 -8 8 -7 10 2 6 -9 37 -45
124 -18 44 -63 154 -100 245 -37 91 -72 176 -78 190 -6 14 -11 27 -12 30 0 3
-11 27 -23 54 -12 27 -22 50 -22 52 0 1 -5 15 -12 31 -6 15 -12 30 -13 33 -1
3 -7 19 -14 35 -7 17 -24 59 -38 94 -14 36 -29 72 -33 80 -14 28 -29 65 -50
121 -12 30 -27 69 -35 85 -7 17 -23 54 -35 84 -11 30 -30 74 -41 97 -10 24
-19 48 -19 54 0 7 -7 24 -15 38 -14 27 -155 368 -155 377 0 3 -9 24 -19 48
-35 75 -108 256 -109 270 -1 4 -8 20 -15 35 -16 30 -39 82 -43 97 -1 6 -28 71
-59 145 -31 74 -68 164 -82 200 -14 36 -29 69 -34 75 -5 5 -9 15 -9 23 0 8 -7
28 -14 45 -8 18 -42 100 -76 182 -34 83 -65 159 -70 170 -29 67 -52 121 -54
130 -2 6 -8 22 -14 38 -19 44 -33 82 -34 87 0 27 -38 29 -984 28 -530 0 -966
-3 -968 -6z"/>
<path d="M9511 7883 l1 -3723 786 2 787 3 2 1510 c1 831 2 1521 2 1535 l1 26
1593 0 c875 0 1594 -3 1597 -7 3 -4 5 -696 4 -1538 l0 -1531 785 2 786 3 0
3720 0 3720 -785 0 -785 0 0 -1535 0 -1535 -1595 1 c-877 1 -1597 2 -1600 3
-3 0 -5 691 -4 1535 l1 1533 -788 0 -788 0 0 -3724z"/>
</g>
</svg>
