<svg width="81" height="81" viewBox="0 0 81 81" fill="none" xmlns="http://www.w3.org/2000/svg">
<rect width="81" height="81" rx="40.5" fill="#292929"/>
<path d="M40.5 51.3334C41.2674 51.3334 41.9111 51.0734 42.4311 50.5534C42.9493 50.0352 43.2084 49.3924 43.2084 48.6251V39.9584L45.6459 42.3959C46.1424 42.8924 46.7743 43.1407 47.5417 43.1407C48.309 43.1407 48.941 42.8924 49.4375 42.3959C49.934 41.8994 50.1823 41.2674 50.1823 40.5001C50.1823 39.7327 49.934 39.1008 49.4375 38.6042L42.3959 31.5626C42.125 31.2917 41.8316 31.0995 41.5156 30.9857C41.1997 30.8738 40.8611 30.8178 40.5 30.8178C40.1389 30.8178 39.8004 30.8738 39.4844 30.9857C39.1684 31.0995 38.875 31.2917 38.6042 31.5626L31.5625 38.6042C31.066 39.1008 30.8177 39.7327 30.8177 40.5001C30.8177 41.2674 31.066 41.8994 31.5625 42.3959C32.059 42.8924 32.691 43.1407 33.4584 43.1407C34.2257 43.1407 34.8577 42.8924 35.3542 42.3959L37.7917 39.9584V48.6251C37.7917 49.3924 38.0517 50.0352 38.5717 50.5534C39.0899 51.0734 39.7327 51.3334 40.5 51.3334ZM40.5 67.5834C36.7535 67.5834 33.2327 66.872 29.9375 65.4492C26.6424 64.0283 23.7761 62.099 21.3386 59.6615C18.9011 57.224 16.9718 54.3577 15.5509 51.0626C14.1281 47.7674 13.4167 44.2466 13.4167 40.5001C13.4167 36.7536 14.1281 33.2327 15.5509 29.9376C16.9718 26.6424 18.9011 23.7761 21.3386 21.3386C23.7761 18.9011 26.6424 16.971 29.9375 15.5482C33.2327 14.1272 36.7535 13.4167 40.5 13.4167C44.2465 13.4167 47.7674 14.1272 51.0625 15.5482C54.3577 16.971 57.224 18.9011 59.6615 21.3386C62.099 23.7761 64.0282 26.6424 65.4492 29.9376C66.872 33.2327 67.5834 36.7536 67.5834 40.5001C67.5834 44.2466 66.872 47.7674 65.4492 51.0626C64.0282 54.3577 62.099 57.224 59.6615 59.6615C57.224 62.099 54.3577 64.0283 51.0625 65.4492C47.7674 66.872 44.2465 67.5834 40.5 67.5834ZM40.5 62.1667C46.5035 62.1667 51.6159 60.057 55.8373 55.8374C60.0569 51.616 62.1667 46.5036 62.1667 40.5001C62.1667 34.4966 60.0569 29.3842 55.8373 25.1628C51.6159 20.9432 46.5035 18.8334 40.5 18.8334C34.4965 18.8334 29.385 20.9432 25.1654 25.1628C20.944 29.3842 18.8334 34.4966 18.8334 40.5001C18.8334 46.5036 20.944 51.616 25.1654 55.8374C29.385 60.057 34.4965 62.1667 40.5 62.1667Z" fill="#E6B200"/>
</svg>
