<svg width="26" height="26" viewBox="0 0 26 26" fill="none" xmlns="http://www.w3.org/2000/svg">
<path d="M13 0.5C11.3584 0.5 9.73298 0.823322 8.21641 1.45151C6.69984 2.07969 5.32185 3.00043 4.16112 4.16117C1.81692 6.50537 0.499955 9.68479 0.499955 13C0.489027 15.8864 1.48845 18.6857 3.32495 20.9125L0.824955 23.4125C0.651508 23.5883 0.534012 23.8115 0.487295 24.054C0.440577 24.2965 0.46673 24.5474 0.562455 24.775C0.666277 24.9999 0.834585 25.1889 1.04601 25.318C1.25744 25.4471 1.50246 25.5104 1.74995 25.5H13C16.3152 25.5 19.4946 24.183 21.8388 21.8388C24.183 19.4946 25.5 16.3152 25.5 13C25.5 9.68479 24.183 6.50537 21.8388 4.16117C19.4946 1.81696 16.3152 0.5 13 0.5ZM13 23H4.76245L5.92495 21.8375C6.15777 21.6033 6.28845 21.2865 6.28845 20.9562C6.28845 20.626 6.15777 20.3092 5.92495 20.075C4.28819 18.4401 3.26892 16.2882 3.04082 13.986C2.81271 11.6838 3.38988 9.37376 4.67399 7.4494C5.95809 5.52505 7.86969 4.10545 10.0831 3.43247C12.2965 2.75948 14.6748 2.87476 16.8127 3.75864C18.9507 4.64253 20.716 6.24034 21.808 8.27986C22.9 10.3194 23.251 12.6744 22.8014 14.9438C22.3517 17.2131 21.1291 19.2563 19.3419 20.7253C17.5547 22.1943 15.3134 22.9982 13 23ZM19.25 11.75H6.74995C6.41843 11.75 6.10049 11.8817 5.86607 12.1161C5.63165 12.3505 5.49995 12.6685 5.49995 13C5.49995 13.3315 5.63165 13.6495 5.86607 13.8839C6.10049 14.1183 6.41843 14.25 6.74995 14.25H19.25C19.5815 14.25 19.8994 14.1183 20.1338 13.8839C20.3683 13.6495 20.5 13.3315 20.5 13C20.5 12.6685 20.3683 12.3505 20.1338 12.1161C19.8994 11.8817 19.5815 11.75 19.25 11.75ZM16.75 16.75H9.24995C8.91843 16.75 8.60049 16.8817 8.36607 17.1161C8.13165 17.3505 7.99995 17.6685 7.99995 18C7.99995 18.3315 8.13165 18.6495 8.36607 18.8839C8.60049 19.1183 8.91843 19.25 9.24995 19.25H16.75C17.0815 19.25 17.3994 19.1183 17.6338 18.8839C17.8683 18.6495 18 18.3315 18 18C18 17.6685 17.8683 17.3505 17.6338 17.1161C17.3994 16.8817 17.0815 16.75 16.75 16.75ZM9.24995 9.25H16.75C17.0815 9.25 17.3994 9.1183 17.6338 8.88388C17.8683 8.64946 18 8.33152 18 8C18 7.66848 17.8683 7.35054 17.6338 7.11612C17.3994 6.8817 17.0815 6.75 16.75 6.75H9.24995C8.91843 6.75 8.60049 6.8817 8.36607 7.11612C8.13165 7.35054 7.99995 7.66848 7.99995 8C7.99995 8.33152 8.13165 8.64946 8.36607 8.88388C8.60049 9.1183 8.91843 9.25 9.24995 9.25Z" fill="#292929"/>
</svg>
