<svg width="22" height="21" viewBox="0 0 22 21" fill="none" xmlns="http://www.w3.org/2000/svg">
<path d="M10.9737 0.565781C9.63453 0.565781 8.30851 0.829543 7.07131 1.34201C5.8341 1.85447 4.70995 2.60561 3.76304 3.55252C1.85066 5.4649 0.776301 8.05864 0.776301 10.7631C0.767387 13.1179 1.5827 15.4015 3.08091 17.2181L1.04143 19.2576C0.899937 19.401 0.804085 19.5831 0.765973 19.7809C0.727862 19.9787 0.749197 20.1834 0.827288 20.3691C0.911985 20.5526 1.04929 20.7067 1.22177 20.812C1.39425 20.9173 1.59413 20.969 1.79604 20.9605H10.9737C13.6782 20.9605 16.2719 19.8862 18.1843 17.9738C20.0967 16.0614 21.171 13.4677 21.171 10.7631C21.171 8.05864 20.0967 5.4649 18.1843 3.55252C16.2719 1.64014 13.6782 0.565781 10.9737 0.565781ZM10.9737 18.921H4.2536L5.20196 17.9727C5.39189 17.7816 5.49849 17.5232 5.49849 17.2538C5.49849 16.9844 5.39189 16.7259 5.20196 16.5349C3.8667 15.2011 3.0352 13.4456 2.84911 11.5675C2.66303 9.68942 3.13387 7.8049 4.18143 6.23503C5.22899 4.66516 6.78846 3.50707 8.59413 2.95806C10.3998 2.40904 12.34 2.50308 14.0841 3.22415C15.8282 3.94521 17.2684 5.24869 18.1592 6.91251C19.05 8.57633 19.3364 10.4976 18.9696 12.3488C18.6027 14.2001 17.6053 15.867 16.1473 17.0654C14.6894 18.2638 12.861 18.9196 10.9737 18.921ZM16.0724 9.74341H5.87499C5.60453 9.74341 5.34516 9.85085 5.15392 10.0421C4.96269 10.2333 4.85525 10.4927 4.85525 10.7631C4.85525 11.0336 4.96269 11.293 5.15392 11.4842C5.34516 11.6755 5.60453 11.7829 5.87499 11.7829H16.0724C16.3428 11.7829 16.6022 11.6755 16.7934 11.4842C16.9847 11.293 17.0921 11.0336 17.0921 10.7631C17.0921 10.4927 16.9847 10.2333 16.7934 10.0421C16.6022 9.85085 16.3428 9.74341 16.0724 9.74341ZM14.0329 13.8224H7.91446C7.64401 13.8224 7.38463 13.9298 7.1934 14.121C7.00216 14.3123 6.89472 14.5716 6.89472 14.8421C6.89472 15.1125 7.00216 15.3719 7.1934 15.5632C7.38463 15.7544 7.64401 15.8618 7.91446 15.8618H14.0329C14.3033 15.8618 14.5627 15.7544 14.7539 15.5632C14.9452 15.3719 15.0526 15.1125 15.0526 14.8421C15.0526 14.5716 14.9452 14.3123 14.7539 14.121C14.5627 13.9298 14.3033 13.8224 14.0329 13.8224ZM7.91446 7.70394H14.0329C14.3033 7.70394 14.5627 7.5965 14.7539 7.40526C14.9452 7.21403 15.0526 6.95465 15.0526 6.6842C15.0526 6.41375 14.9452 6.15438 14.7539 5.96314C14.5627 5.7719 14.3033 5.66446 14.0329 5.66446H7.91446C7.64401 5.66446 7.38463 5.7719 7.1934 5.96314C7.00216 6.15438 6.89472 6.41375 6.89472 6.6842C6.89472 6.95465 7.00216 7.21403 7.1934 7.40526C7.38463 7.5965 7.64401 7.70394 7.91446 7.70394Z" fill="#E6B200"/>
</svg>
