<svg width="67" height="33" viewBox="0 0 67 33" fill="none" xmlns="http://www.w3.org/2000/svg">
<g clip-path="url(#clip0_2_118)">
<path d="M48.2387 17.8738C51.7638 15.8315 55.2794 13.7726 58.8166 11.7517C62.1739 9.83264 66.1237 11.6022 66.8851 15.3362C67.3256 17.4963 66.3695 19.8298 64.4362 20.9663C58.0979 24.6921 51.7504 28.4032 45.3713 32.0575C43.3969 33.1885 41.3631 32.9804 39.5637 31.5944C37.7359 30.1873 37.1599 28.2464 37.5885 25.9873C38.078 24.2676 39.1981 23.1179 40.7258 22.2578C43.2514 20.8359 45.7364 19.339 48.2387 17.8738Z" fill="#FABC05"/>
<path d="M50.8266 16.3889C47.3104 14.3308 43.7853 12.2887 40.2814 10.2097C36.9552 8.23606 36.4998 3.90066 39.3248 1.36837C40.959 -0.0960383 43.4404 -0.427886 45.3828 0.692794C51.751 4.36688 58.1107 8.05654 64.4375 11.8019C66.3957 12.9611 67.2337 14.8421 66.944 17.107C66.6496 19.407 65.2716 20.8806 63.1177 21.6359C61.3964 22.0683 59.8493 21.6644 58.3471 20.76C55.8634 19.2644 53.3357 17.842 50.8266 16.3889Z" fill="#FABC05"/>
<path d="M18.779 14.9326C16.5227 16.2257 14.2651 17.5164 12.0109 18.8134C10.6927 19.5722 9.38851 20.3568 8.06343 21.1028C5.39311 22.6063 2.22056 21.7251 0.706512 19.0769C-0.738437 16.5499 0.0919967 13.2737 2.66365 11.7594C8.95144 8.05729 15.2555 4.38214 21.5822 0.747919C23.5226 -0.366425 25.5358 -0.226241 27.3301 1.10617C29.2239 2.51249 29.8439 4.49144 29.4186 6.81121C29.1548 7.37274 28.9973 8.03089 28.6021 8.47309C27.9598 9.19249 27.2296 9.88126 26.4167 10.3871C23.9011 11.9518 21.3289 13.4244 18.779 14.9326Z" fill="#FABC05"/>
<path d="M16.1918 16.383C18.4302 17.7072 20.6672 19.0344 22.9077 20.3549C24.2182 21.1273 25.5438 21.8742 26.8469 22.6586C29.4729 24.2399 30.3029 27.4517 28.7862 30.0983C27.3389 32.6243 24.1111 33.5372 21.5251 32.0474C15.2027 28.4056 8.89557 24.7365 2.61223 21.0265C0.685191 19.8887 -0.200989 18.0599 0.045812 15.8262C0.306222 13.4684 1.69516 11.9375 3.89962 11.1489C4.51335 11.099 5.15718 10.9074 5.73453 11.0315C6.67332 11.2332 7.6299 11.5265 8.47054 11.9837C11.0718 13.3988 13.6219 14.9094 16.1918 16.383Z" fill="#FABC05"/>
</g>
<defs>
<clipPath id="clip0_2_118">
<rect width="67" height="33" fill="white"/>
</clipPath>
</defs>
</svg>
