<svg width="37" height="56" viewBox="0 0 37 56" fill="none" xmlns="http://www.w3.org/2000/svg">
<path d="M9.06511 0H18.0935V18.1486H9.06522C-2.84117 17.6808 -2.96142 0.491313 9.06511 0ZM9.06511 37.0734H18.0935V18.9248H9.06522C-2.96131 19.4161 -2.84106 36.6056 9.06522 37.0734H9.06511ZM27.8945 0H18.8659V18.1486H27.8945C39.9611 17.4996 39.8107 0.370453 27.8945 0ZM18.0935 46.9241V37.8497H9.06522C1.69765 37.8497 -2.96131 46.5314 2.16265 52.7671C7.04796 58.9478 18.0937 55.8663 18.0937 46.9241H18.0935ZM36.9415 27.9991C36.9415 21.0254 29.3784 16.6433 23.3608 20.1301C17.3432 23.617 17.3431 32.3813 23.3608 35.8682C29.3785 39.3551 36.9415 34.9729 36.9415 27.9991Z" fill="#FABC05"/>
</svg>
