<svg width="55" height="55" viewBox="0 0 55 55" fill="none" xmlns="http://www.w3.org/2000/svg">
<path d="M2.04167 23.6813L17.6958 8.00003L22.2729 12.6042C21.6229 14.9063 22.6792 17.425 24.7917 18.6438V33.6479C23.1667 34.5688 22.0833 36.3292 22.0833 38.3334C22.0833 39.77 22.654 41.1477 23.6698 42.1635C24.6857 43.1793 26.0634 43.75 27.5 43.75C28.9366 43.75 30.3143 43.1793 31.3302 42.1635C32.346 41.1477 32.9167 39.77 32.9167 38.3334C32.9167 36.3292 31.8333 34.5688 30.2083 33.6479V20.4854L35.8146 26.1459C35.625 26.5521 35.625 27.0125 35.625 27.5C35.625 28.9366 36.1957 30.3144 37.2115 31.3302C38.2273 32.346 39.6051 32.9167 41.0417 32.9167C42.4783 32.9167 43.856 32.346 44.8718 31.3302C45.8876 30.3144 46.4583 28.9366 46.4583 27.5C46.4583 26.0634 45.8876 24.6857 44.8718 23.6699C43.856 22.6541 42.4783 22.0834 41.0417 22.0834C40.5542 22.0834 40.0938 22.0834 39.6875 22.2729L32.7271 15.3125C33.0634 14.0581 32.933 12.7243 32.3602 11.5588C31.7874 10.3932 30.811 9.47514 29.6125 8.97503C28.4479 8.5417 27.2292 8.43337 26.1458 8.73128L21.5417 4.1542L23.6813 2.0417C25.7938 -0.0978841 29.2063 -0.0978841 31.3188 2.0417L52.9583 23.6813C55.0979 25.7938 55.0979 29.2063 52.9583 31.3188L31.3188 52.9584C29.2063 55.0979 25.7938 55.0979 23.6813 52.9584L2.04167 31.3188C-0.0979146 29.2063 -0.0979146 25.7938 2.04167 23.6813Z" fill="#FABC05"/>
</svg>
