<svg width="50" height="50" viewBox="0 0 50 50" fill="none" xmlns="http://www.w3.org/2000/svg">
<path d="M5.41667 22.0625L17.4583 9.99996L20.9792 13.5416C20.4792 15.3125 21.2917 17.25 22.9167 18.1875V29.7291C21.6667 30.4375 20.8333 31.7916 20.8333 33.3333C20.8333 34.4384 21.2723 35.4982 22.0537 36.2796C22.8351 37.061 23.8949 37.5 25 37.5C26.1051 37.5 27.1649 37.061 27.9463 36.2796C28.7277 35.4982 29.1667 34.4384 29.1667 33.3333C29.1667 31.7916 28.3333 30.4375 27.0833 29.7291V19.6041L31.3958 23.9583C31.25 24.2708 31.25 24.625 31.25 25C31.25 26.105 31.689 27.1648 32.4704 27.9462C33.2518 28.7276 34.3116 29.1666 35.4167 29.1666C36.5217 29.1666 37.5815 28.7276 38.3629 27.9462C39.1444 27.1648 39.5833 26.105 39.5833 25C39.5833 23.8949 39.1444 22.8351 38.3629 22.0537C37.5815 21.2723 36.5217 20.8333 35.4167 20.8333C35.0417 20.8333 34.6875 20.8333 34.375 20.9791L29.0208 15.625C29.2795 14.66 29.1792 13.634 28.7386 12.7374C28.298 11.8409 27.547 11.1347 26.625 10.75C25.7292 10.4166 24.7917 10.3333 23.9583 10.5625L20.4167 7.04163L22.0625 5.41663C23.6875 3.77079 26.3125 3.77079 27.9375 5.41663L44.5833 22.0625C46.2292 23.6875 46.2292 26.3125 44.5833 27.9375L27.9375 44.5833C26.3125 46.2291 23.6875 46.2291 22.0625 44.5833L5.41667 27.9375C3.77084 26.3125 3.77084 23.6875 5.41667 22.0625Z" fill="#FABC05"/>
</svg>
