<svg width="58" height="58" viewBox="0 0 58 58" fill="none" xmlns="http://www.w3.org/2000/svg">
<g filter="url(#filter0_d_69_63)">
<rect x="4" width="50" height="50" rx="25" fill="#292929" fill-opacity="0.5" shape-rendering="crispEdges"/>
</g>
<path d="M42.3498 11.6502C41.2491 10.5496 39.9247 10 38.3751 10H19.6249C18.0753 10 16.7509 10.5496 15.6502 11.6502C14.5496 12.7509 14 14.0753 14 15.6249V34.3751C14 35.9247 14.5496 37.2491 15.6502 38.3498C16.7509 39.4504 18.0753 40 19.6249 40H24.0005C24.2858 40 24.5005 39.9895 24.6447 39.97C24.8124 39.9363 24.9638 39.8469 25.0741 39.7162C25.2168 39.566 25.2889 39.3483 25.2889 39.063L25.2783 37.7341C25.2723 36.8872 25.2693 36.2175 25.2693 35.722L24.8189 35.8001C24.5336 35.8526 24.1732 35.8752 23.7362 35.8692C23.2808 35.8608 22.8268 35.8151 22.3788 35.7325C21.9019 35.6445 21.453 35.4437 21.0694 35.1469C20.6677 34.843 20.3681 34.424 20.2105 33.9456L20.0153 33.4952C19.8508 33.1398 19.6441 32.8056 19.3997 32.4996C19.1204 32.1347 18.8366 31.8885 18.5498 31.7578L18.4146 31.6602C18.3204 31.5928 18.2347 31.5141 18.1594 31.426C18.0874 31.3442 18.0282 31.2521 17.9837 31.1527C17.9446 31.0611 17.9777 30.986 18.0813 30.9275C18.1864 30.8674 18.3741 30.8389 18.6489 30.8389L19.0393 30.8989C19.2991 30.95 19.6219 31.1062 20.0048 31.3659C20.3923 31.6301 20.716 31.9774 20.9523 32.3825C21.2526 32.9156 21.613 33.3225 22.0364 33.6033C22.4599 33.8826 22.8863 34.0237 23.3158 34.0237C23.7452 34.0237 24.1161 33.9907 24.43 33.9261C24.7334 33.8634 25.0283 33.7646 25.3084 33.6318C25.4255 32.7609 25.7438 32.0882 26.2649 31.6197C25.5897 31.5535 24.9206 31.436 24.2633 31.2683C23.6218 31.0921 23.0049 30.8364 22.4268 30.507C21.8221 30.1778 21.2879 29.7329 20.8547 29.1977C20.4388 28.6766 20.0964 27.9934 19.8291 27.148C19.5633 26.3011 19.4297 25.3236 19.4297 24.2169C19.4297 22.6418 19.9432 21.3009 20.9718 20.1927C20.4913 19.0095 20.5364 17.6806 21.1085 16.2105C21.4869 16.0919 22.0469 16.1805 22.7887 16.4733C23.5305 16.7661 24.0741 17.0169 24.4194 17.2241C24.7648 17.4343 25.0411 17.61 25.2498 17.7526C26.4706 17.4129 27.7321 17.2421 28.9992 17.2451C30.2891 17.2451 31.5384 17.4148 32.7502 17.7526L33.492 17.2841C34.0625 16.9416 34.6644 16.654 35.2894 16.4252C35.9801 16.164 36.5056 16.0934 36.872 16.2105C37.4576 17.6821 37.5087 19.0095 37.0267 20.1942C38.0553 21.3009 38.5703 22.6418 38.5703 24.2184C38.5703 25.3251 38.4367 26.3056 38.1694 27.157C37.9036 28.0099 37.5582 28.6931 37.1348 29.2082C36.6939 29.7365 36.1576 30.1772 35.5536 30.507C34.923 30.8584 34.3103 31.1122 33.7172 31.2683C33.0599 31.4366 32.3908 31.5546 31.7156 31.6212C32.3913 32.2068 32.7307 33.1303 32.7307 34.3931V39.063C32.7307 39.2837 32.7622 39.4624 32.8283 39.5991C32.8586 39.6649 32.9019 39.724 32.9556 39.7727C33.0093 39.8215 33.0722 39.8589 33.1406 39.8829C33.2847 39.9339 33.4109 39.967 33.522 39.979C33.6331 39.994 33.7923 39.9985 33.9995 39.9985H38.3751C39.9247 39.9985 41.2491 39.4489 42.3498 38.3483C43.4489 37.2491 44 35.9232 44 34.3736V15.6249C44 14.0753 43.4489 12.7509 42.3483 11.6502H42.3498Z" fill="#E6B200"/>
<defs>
<filter id="filter0_d_69_63" x="0" y="0" width="58" height="58" filterUnits="userSpaceOnUse" color-interpolation-filters="sRGB">
<feFlood flood-opacity="0" result="BackgroundImageFix"/>
<feColorMatrix in="SourceAlpha" type="matrix" values="0 0 0 0 0 0 0 0 0 0 0 0 0 0 0 0 0 0 127 0" result="hardAlpha"/>
<feOffset dy="4"/>
<feGaussianBlur stdDeviation="2"/>
<feComposite in2="hardAlpha" operator="out"/>
<feColorMatrix type="matrix" values="0 0 0 0 0 0 0 0 0 0 0 0 0 0 0 0 0 0 0.25 0"/>
<feBlend mode="normal" in2="BackgroundImageFix" result="effect1_dropShadow_69_63"/>
<feBlend mode="normal" in="SourceGraphic" in2="effect1_dropShadow_69_63" result="shape"/>
</filter>
</defs>
</svg>
