<svg width="57" height="57" viewBox="0 0 57 57" fill="none" xmlns="http://www.w3.org/2000/svg">
<path d="M28.4746 0.843264C12.7769 0.836916 0.0625 13.5449 0.0625 29.23C0.0625 41.6333 8.01611 52.1768 19.0928 56.0488C20.5845 56.4233 20.356 55.3633 20.356 54.6396V49.7202C11.7422 50.7295 11.3931 45.0293 10.8154 44.0772C9.64746 42.084 6.88623 41.5762 7.71143 40.624C9.67285 39.6147 11.6724 40.8779 13.9893 44.2993C15.665 46.7813 18.9341 46.3623 20.5908 45.9497C20.9526 44.458 21.7271 43.125 22.7935 42.0903C13.8687 40.4907 10.1489 35.0444 10.1489 28.5698C10.1489 25.4277 11.1836 22.5396 13.2148 20.21C11.9199 16.3696 13.3354 13.0815 13.5259 12.5928C17.2139 12.2627 21.0479 15.2334 21.3462 15.4683C23.4409 14.9033 25.834 14.605 28.5127 14.605C31.2041 14.605 33.6035 14.916 35.7173 15.4873C36.4346 14.9414 39.9893 12.3897 43.417 12.7007C43.6011 13.1895 44.9849 16.4014 43.7661 20.1909C45.8228 22.5269 46.8701 25.4404 46.8701 28.5889C46.8701 35.0762 43.125 40.5288 34.1748 42.103C34.9414 42.8569 35.5501 43.756 35.9654 44.7478C36.3806 45.7396 36.5941 46.8042 36.5933 47.8794V55.0205C36.644 55.5918 36.5933 56.1567 37.5454 56.1567C48.7871 52.3672 56.8804 41.7476 56.8804 29.2363C56.8804 13.5449 44.1597 0.843264 28.4746 0.843264Z" fill="#FABC05"/>
</svg>
