<svg width="54" height="54" viewBox="0 0 54 54" fill="none" xmlns="http://www.w3.org/2000/svg">
<path d="M40.3498 13.6502C39.2491 12.5496 37.9247 12 36.3751 12H17.6249C16.0753 12 14.7509 12.5496 13.6502 13.6502C12.5496 14.7509 12 16.0753 12 17.6249V36.3751C12 37.9247 12.5496 39.2491 13.6502 40.3498C14.7509 41.4504 16.0753 42 17.6249 42H22.0005C22.2858 42 22.5005 41.9895 22.6447 41.97C22.8124 41.9363 22.9638 41.8469 23.0741 41.7162C23.2168 41.566 23.2889 41.3483 23.2889 41.063L23.2783 39.7341C23.2723 38.8872 23.2693 38.2175 23.2693 37.722L22.8189 37.8001C22.5336 37.8526 22.1732 37.8752 21.7362 37.8692C21.2808 37.8608 20.8268 37.8151 20.3788 37.7325C19.9019 37.6445 19.453 37.4437 19.0694 37.1469C18.6677 36.843 18.3681 36.424 18.2105 35.9456L18.0153 35.4952C17.8508 35.1398 17.6441 34.8056 17.3997 34.4996C17.1204 34.1347 16.8366 33.8885 16.5498 33.7578L16.4146 33.6602C16.3204 33.5928 16.2347 33.5141 16.1594 33.426C16.0874 33.3442 16.0282 33.2521 15.9837 33.1527C15.9446 33.0611 15.9777 32.986 16.0813 32.9275C16.1864 32.8674 16.3741 32.8389 16.6489 32.8389L17.0393 32.8989C17.2991 32.95 17.6219 33.1062 18.0048 33.3659C18.3923 33.6301 18.716 33.9774 18.9523 34.3825C19.2526 34.9156 19.613 35.3225 20.0364 35.6033C20.4599 35.8826 20.8863 36.0237 21.3158 36.0237C21.7452 36.0237 22.1161 35.9907 22.43 35.9261C22.7334 35.8634 23.0283 35.7646 23.3084 35.6318C23.4255 34.7609 23.7438 34.0882 24.2649 33.6197C23.5897 33.5535 22.9206 33.436 22.2633 33.2683C21.6218 33.0921 21.0049 32.8364 20.4268 32.507C19.8221 32.1778 19.2879 31.7329 18.8547 31.1977C18.4388 30.6766 18.0964 29.9934 17.8291 29.148C17.5633 28.3011 17.4297 27.3236 17.4297 26.2169C17.4297 24.6418 17.9432 23.3009 18.9718 22.1927C18.4913 21.0095 18.5364 19.6806 19.1085 18.2105C19.4869 18.0919 20.0469 18.1805 20.7887 18.4733C21.5305 18.7661 22.0741 19.0169 22.4194 19.2241C22.7648 19.4343 23.0411 19.61 23.2498 19.7526C24.4706 19.4129 25.7321 19.2421 26.9992 19.2451C28.2891 19.2451 29.5384 19.4148 30.7502 19.7526L31.492 19.2841C32.0625 18.9416 32.6644 18.654 33.2894 18.4252C33.9801 18.164 34.5056 18.0934 34.872 18.2105C35.4576 19.6821 35.5087 21.0095 35.0267 22.1942C36.0553 23.3009 36.5703 24.6418 36.5703 26.2184C36.5703 27.3251 36.4367 28.3056 36.1694 29.157C35.9036 30.0099 35.5582 30.6931 35.1348 31.2082C34.6939 31.7365 34.1576 32.1772 33.5536 32.507C32.923 32.8584 32.3103 33.1122 31.7172 33.2683C31.0599 33.4366 30.3908 33.5546 29.7156 33.6212C30.3913 34.2068 30.7307 35.1303 30.7307 36.3931V41.063C30.7307 41.2837 30.7622 41.4624 30.8283 41.5991C30.8586 41.6649 30.9019 41.724 30.9556 41.7727C31.0093 41.8215 31.0722 41.8589 31.1406 41.8829C31.2847 41.9339 31.4109 41.967 31.522 41.979C31.6331 41.994 31.7923 41.9985 31.9995 41.9985H36.3751C37.9247 41.9985 39.2491 41.4489 40.3498 40.3483C41.4489 39.2491 42 37.9232 42 36.3736V17.6249C42 16.0753 41.4489 14.7509 40.3483 13.6502H40.3498Z" fill="url(#paint0_linear_202_65)"/>
<rect x="1" y="1" width="52" height="52" rx="26" stroke="url(#paint1_linear_202_65)" stroke-width="2"/>
<defs>
<linearGradient id="paint0_linear_202_65" x1="27" y1="12" x2="27" y2="42" gradientUnits="userSpaceOnUse">
<stop stop-color="#FFECB3"/>
<stop offset="0.9999" stop-color="#FABC05"/>
<stop offset="1" stop-color="#FAC013"/>
</linearGradient>
<linearGradient id="paint1_linear_202_65" x1="27" y1="2" x2="27" y2="52" gradientUnits="userSpaceOnUse">
<stop stop-color="#FFECB2"/>
<stop offset="1" stop-color="#FABC05"/>
</linearGradient>
</defs>
</svg>
