<svg width="60" height="60" viewBox="0 0 60 60" fill="none" xmlns="http://www.w3.org/2000/svg">
<path d="M31.8501 5.79993C31.6157 5.54213 31.3301 5.33615 31.0115 5.1952C30.693 5.05426 30.3484 4.98145 30.0001 4.98145C29.6517 4.98145 29.3072 5.05426 28.9886 5.1952C28.67 5.33615 28.3844 5.54213 28.1501 5.79993L5.65006 30.7999C5.31827 31.1576 5.09842 31.6046 5.01758 32.0858C4.93675 32.567 4.99847 33.0612 5.19515 33.5077C5.39182 33.9542 5.71485 34.3334 6.12441 34.5986C6.53397 34.8637 7.01217 35.0032 7.50006 34.9999H12.5001V52.4999C12.5001 53.163 12.7634 53.7989 13.2323 54.2677C13.7011 54.7365 14.337 54.9999 15.0001 54.9999H45.0001C45.6631 54.9999 46.299 54.7365 46.7678 54.2677C47.2367 53.7989 47.5001 53.163 47.5001 52.4999V34.9999H52.5001C53.1631 34.9999 53.799 34.7365 54.2678 34.2677C54.7367 33.7989 55.0001 33.163 55.0001 32.4999C55.0047 31.8717 54.7726 31.2648 54.3501 30.7999L31.8501 5.79993Z" fill="#292929"/>
</svg>
