<svg width="54" height="54" viewBox="0 0 54 54" fill="none" xmlns="http://www.w3.org/2000/svg">
<path d="M27 23.4866C26.3052 23.4866 25.6259 23.6926 25.0481 24.0787C24.4704 24.4647 24.0201 25.0134 23.7541 25.6554C23.4882 26.2974 23.4187 27.0038 23.5542 27.6853C23.6898 28.3669 24.0244 28.9929 24.5157 29.4842C25.0071 29.9756 25.6331 30.3102 26.3146 30.4457C26.9961 30.5813 27.7026 30.5117 28.3445 30.2458C28.9865 29.9799 29.5352 29.5296 29.9213 28.9518C30.3073 28.3741 30.5134 27.6948 30.5134 26.9999C30.5134 26.5385 30.4225 26.0817 30.2459 25.6554C30.0694 25.2292 29.8106 24.8419 29.4843 24.5156C29.1581 24.1894 28.7708 23.9306 28.3445 23.754C27.9183 23.5775 27.4614 23.4866 27 23.4866V23.4866ZM41.0675 20.0158C41.0601 18.9217 40.8586 17.8377 40.4725 16.8141C40.1882 16.065 39.7482 15.3848 39.1817 14.8183C38.6152 14.2517 37.9349 13.8118 37.1859 13.5274C36.1622 13.1413 35.0782 12.9399 33.9842 12.9324C32.1567 12.8333 31.6184 12.8333 27 12.8333C22.3817 12.8333 21.8434 12.8333 20.0159 12.9324C18.9219 12.9399 17.8379 13.1413 16.8142 13.5274C16.0652 13.8118 15.3849 14.2517 14.8184 14.8183C14.2518 15.3848 13.8119 16.065 13.5275 16.8141C13.1414 17.8377 12.94 18.9217 12.9325 20.0158C12.8334 21.8433 12.8334 22.3816 12.8334 26.9999C12.8334 31.6183 12.8334 32.1566 12.9325 33.9841C12.9478 35.0819 13.149 36.1693 13.5275 37.1999C13.8106 37.9455 14.2502 38.6218 14.8167 39.1833C15.3808 39.7532 16.0625 40.1931 16.8142 40.4724C17.8379 40.8585 18.9219 41.06 20.0159 41.0674C21.8434 41.1666 22.3817 41.1666 27 41.1666C31.6184 41.1666 32.1567 41.1666 33.9842 41.0674C35.0782 41.06 36.1622 40.8585 37.1859 40.4724C37.9376 40.1931 38.6193 39.7532 39.1834 39.1833C39.7499 38.6218 40.1895 37.9455 40.4725 37.1999C40.8583 36.1713 41.0597 35.0827 41.0675 33.9841C41.1667 32.1566 41.1667 31.6183 41.1667 26.9999C41.1667 22.3816 41.1667 21.8433 41.0675 20.0158V20.0158ZM37.4692 31.3491C37.4237 32.2233 37.2372 33.0844 36.9167 33.8991C36.6417 34.5786 36.2328 35.196 35.7145 35.7143C35.1961 36.2327 34.5788 36.6416 33.8992 36.9166C33.0769 37.2192 32.2109 37.3866 31.335 37.4124H22.665C21.7892 37.3866 20.9232 37.2192 20.1009 36.9166C19.3984 36.6555 18.7639 36.239 18.245 35.6983C17.7317 35.19 17.3353 34.5761 17.0834 33.8991C16.7796 33.0776 16.6167 32.2107 16.6017 31.3349V22.6649C16.6167 21.7892 16.7796 20.9223 17.0834 20.1008C17.3444 19.3982 17.7609 18.7638 18.3017 18.2449C18.8122 17.7344 19.4255 17.3384 20.1009 17.0833C20.9232 16.7807 21.7892 16.6132 22.665 16.5874H31.335C32.2109 16.6132 33.0769 16.7807 33.8992 17.0833C34.6017 17.3443 35.2362 17.7608 35.755 18.3016C36.2683 18.8098 36.6648 19.4238 36.9167 20.1008C37.2193 20.9231 37.3867 21.789 37.4125 22.6649V26.9999C37.4125 29.9183 37.5117 30.2158 37.4692 31.3349V31.3491ZM35.2025 20.8091C35.0339 20.3515 34.7679 19.9359 34.4231 19.5911C34.0782 19.2462 33.6626 18.9803 33.205 18.8116C32.5767 18.5938 31.9149 18.4883 31.25 18.4999H22.75C22.0818 18.5065 21.4199 18.6312 20.795 18.8683C20.3444 19.0293 19.9333 19.2843 19.5889 19.6165C19.2445 19.9487 18.9747 20.3504 18.7975 20.7949C18.5918 21.4259 18.4913 22.0863 18.5 22.7499V31.2499C18.5141 31.9174 18.6385 32.578 18.8684 33.2049C19.037 33.6625 19.303 34.0781 19.6478 34.423C19.9927 34.7678 20.4083 35.0337 20.8659 35.2024C21.4703 35.4247 22.1064 35.5491 22.75 35.5708H31.25C31.9183 35.5642 32.5802 35.4395 33.205 35.2024C33.6626 35.0337 34.0782 34.7678 34.4231 34.423C34.7679 34.0781 35.0339 33.6625 35.2025 33.2049C35.4396 32.5801 35.5643 31.9182 35.5709 31.2499V22.7499C35.5713 22.081 35.4464 21.4179 35.2025 20.7949V20.8091ZM27 32.4116C26.29 32.4116 25.587 32.2715 24.9312 31.9994C24.2754 31.7272 23.6798 31.3284 23.1784 30.8257C22.677 30.323 22.2797 29.7263 22.0093 29.0698C21.7389 28.4133 21.6007 27.7099 21.6025 26.9999C21.6025 25.929 21.9203 24.8821 22.5156 23.9919C23.1108 23.1016 23.9569 22.408 24.9465 21.9988C25.9362 21.5897 27.025 21.4833 28.0752 21.6933C29.1253 21.9033 30.0896 22.4201 30.8458 23.1783C31.6021 23.9366 32.1164 24.9022 32.3236 25.9529C32.5308 27.0036 32.4216 28.0921 32.0099 29.0807C31.5981 30.0693 30.9023 30.9135 30.0105 31.5065C29.1186 32.0994 28.071 32.4144 27 32.4116V32.4116ZM32.6667 22.6508C32.3535 22.6176 32.0637 22.4697 31.8531 22.2356C31.6425 22.0015 31.5259 21.6977 31.5259 21.3828C31.5259 21.0679 31.6425 20.7641 31.8531 20.53C32.0637 20.2959 32.3535 20.1481 32.6667 20.1149C32.9799 20.1481 33.2697 20.2959 33.4803 20.53C33.691 20.7641 33.8075 21.0679 33.8075 21.3828C33.8075 21.6977 33.691 22.0015 33.4803 22.2356C33.2697 22.4697 32.9799 22.6176 32.6667 22.6508Z" fill="url(#paint0_linear_202_62)"/>
<rect x="1" y="1" width="52" height="52" rx="26" stroke="url(#paint1_linear_202_62)" stroke-width="2"/>
<defs>
<linearGradient id="paint0_linear_202_62" x1="27" y1="12.8333" x2="27" y2="41.1666" gradientUnits="userSpaceOnUse">
<stop stop-color="#FFECB3"/>
<stop offset="0.9999" stop-color="#FABC05"/>
<stop offset="1" stop-color="#FAC013"/>
</linearGradient>
<linearGradient id="paint1_linear_202_62" x1="27" y1="2" x2="27" y2="52" gradientUnits="userSpaceOnUse">
<stop stop-color="#FFECB2"/>
<stop offset="1" stop-color="#FABC05"/>
</linearGradient>
</defs>
</svg>
