<svg width="58" height="58" viewBox="0 0 58 58" fill="none" xmlns="http://www.w3.org/2000/svg">
<g filter="url(#filter0_d_69_60)">
<rect x="4" width="50" height="50" rx="25" fill="#292929" fill-opacity="0.5" shape-rendering="crispEdges"/>
</g>
<path d="M29 21.4866C28.3052 21.4866 27.6259 21.6926 27.0481 22.0787C26.4704 22.4647 26.0201 23.0134 25.7541 23.6554C25.4882 24.2974 25.4187 25.0038 25.5542 25.6853C25.6898 26.3669 26.0244 26.9929 26.5157 27.4842C27.0071 27.9756 27.6331 28.3102 28.3146 28.4457C28.9961 28.5813 29.7026 28.5117 30.3445 28.2458C30.9865 27.9799 31.5352 27.5296 31.9213 26.9518C32.3073 26.3741 32.5134 25.6948 32.5134 24.9999C32.5134 24.5385 32.4225 24.0817 32.2459 23.6554C32.0694 23.2292 31.8106 22.8419 31.4843 22.5156C31.1581 22.1894 30.7708 21.9306 30.3445 21.754C29.9183 21.5775 29.4614 21.4866 29 21.4866ZM43.0675 18.0158C43.0601 16.9217 42.8586 15.8377 42.4725 14.8141C42.1882 14.065 41.7482 13.3848 41.1817 12.8183C40.6152 12.2517 39.9349 11.8118 39.1859 11.5274C38.1622 11.1413 37.0782 10.9399 35.9842 10.9324C34.1567 10.8333 33.6184 10.8333 29 10.8333C24.3817 10.8333 23.8434 10.8333 22.0159 10.9324C20.9219 10.9399 19.8379 11.1413 18.8142 11.5274C18.0652 11.8118 17.3849 12.2517 16.8184 12.8183C16.2518 13.3848 15.8119 14.065 15.5275 14.8141C15.1414 15.8377 14.94 16.9217 14.9325 18.0158C14.8334 19.8433 14.8334 20.3816 14.8334 24.9999C14.8334 29.6183 14.8334 30.1566 14.9325 31.9841C14.9478 33.0819 15.149 34.1693 15.5275 35.1999C15.8106 35.9455 16.2502 36.6218 16.8167 37.1833C17.3808 37.7532 18.0625 38.1931 18.8142 38.4724C19.8379 38.8585 20.9219 39.06 22.0159 39.0674C23.8434 39.1666 24.3817 39.1666 29 39.1666C33.6184 39.1666 34.1567 39.1666 35.9842 39.0674C37.0782 39.06 38.1622 38.8585 39.1859 38.4724C39.9376 38.1931 40.6193 37.7532 41.1834 37.1833C41.7499 36.6218 42.1895 35.9455 42.4725 35.1999C42.8583 34.1713 43.0597 33.0827 43.0675 31.9841C43.1667 30.1566 43.1667 29.6183 43.1667 24.9999C43.1667 20.3816 43.1667 19.8433 43.0675 18.0158ZM39.4692 29.3491C39.4237 30.2233 39.2372 31.0844 38.9167 31.8991C38.6417 32.5786 38.2328 33.196 37.7145 33.7143C37.1961 34.2327 36.5788 34.6416 35.8992 34.9166C35.0769 35.2192 34.2109 35.3866 33.335 35.4124H24.665C23.7892 35.3866 22.9232 35.2192 22.1009 34.9166C21.3984 34.6555 20.7639 34.239 20.245 33.6983C19.7317 33.19 19.3353 32.5761 19.0834 31.8991C18.7796 31.0776 18.6167 30.2107 18.6017 29.3349V20.6649C18.6167 19.7892 18.7796 18.9223 19.0834 18.1008C19.3444 17.3982 19.7609 16.7638 20.3017 16.2449C20.8122 15.7344 21.4255 15.3384 22.1009 15.0833C22.9232 14.7807 23.7892 14.6132 24.665 14.5874H33.335C34.2109 14.6132 35.0769 14.7807 35.8992 15.0833C36.6017 15.3443 37.2362 15.7608 37.755 16.3016C38.2683 16.8098 38.6648 17.4238 38.9167 18.1008C39.2193 18.9231 39.3867 19.789 39.4125 20.6649V24.9999C39.4125 27.9183 39.5117 28.2158 39.4692 29.3349V29.3491ZM37.2025 18.8091C37.0339 18.3515 36.7679 17.9359 36.4231 17.5911C36.0782 17.2462 35.6626 16.9803 35.205 16.8116C34.5767 16.5938 33.9149 16.4883 33.25 16.4999H24.75C24.0818 16.5065 23.4199 16.6312 22.795 16.8683C22.3444 17.0293 21.9333 17.2843 21.5889 17.6165C21.2445 17.9487 20.9747 18.3504 20.7975 18.7949C20.5918 19.4259 20.4913 20.0863 20.5 20.7499V29.2499C20.5141 29.9174 20.6385 30.578 20.8684 31.2049C21.037 31.6625 21.303 32.0781 21.6478 32.423C21.9927 32.7678 22.4083 33.0337 22.8659 33.2024C23.4703 33.4247 24.1064 33.5491 24.75 33.5708H33.25C33.9183 33.5642 34.5802 33.4395 35.205 33.2024C35.6626 33.0337 36.0782 32.7678 36.4231 32.423C36.7679 32.0781 37.0339 31.6625 37.2025 31.2049C37.4396 30.5801 37.5643 29.9182 37.5709 29.2499V20.7499C37.5713 20.081 37.4464 19.4179 37.2025 18.7949V18.8091ZM29 30.4116C28.29 30.4116 27.587 30.2715 26.9312 29.9994C26.2754 29.7272 25.6798 29.3284 25.1784 28.8257C24.677 28.323 24.2797 27.7263 24.0093 27.0698C23.7389 26.4133 23.6007 25.7099 23.6025 24.9999C23.6025 23.929 23.9203 22.8821 24.5156 21.9919C25.1108 21.1016 25.9569 20.408 26.9465 19.9988C27.9362 19.5897 29.025 19.4833 30.0752 19.6933C31.1253 19.9033 32.0896 20.4201 32.8458 21.1783C33.6021 21.9366 34.1164 22.9022 34.3236 23.9529C34.5308 25.0036 34.4216 26.0921 34.0099 27.0807C33.5981 28.0693 32.9023 28.9135 32.0105 29.5065C31.1186 30.0994 30.071 30.4144 29 30.4116ZM34.6667 20.6508C34.3535 20.6176 34.0637 20.4697 33.8531 20.2356C33.6425 20.0015 33.5259 19.6978 33.5259 19.3828C33.5259 19.0679 33.6425 18.7641 33.8531 18.53C34.0637 18.2959 34.3535 18.1481 34.6667 18.1149C34.9799 18.1481 35.2697 18.2959 35.4803 18.53C35.691 18.7641 35.8075 19.0679 35.8075 19.3828C35.8075 19.6978 35.691 20.0015 35.4803 20.2356C35.2697 20.4697 34.9799 20.6176 34.6667 20.6508Z" fill="#E6B200"/>
<defs>
<filter id="filter0_d_69_60" x="0" y="0" width="58" height="58" filterUnits="userSpaceOnUse" color-interpolation-filters="sRGB">
<feFlood flood-opacity="0" result="BackgroundImageFix"/>
<feColorMatrix in="SourceAlpha" type="matrix" values="0 0 0 0 0 0 0 0 0 0 0 0 0 0 0 0 0 0 127 0" result="hardAlpha"/>
<feOffset dy="4"/>
<feGaussianBlur stdDeviation="2"/>
<feComposite in2="hardAlpha" operator="out"/>
<feColorMatrix type="matrix" values="0 0 0 0 0 0 0 0 0 0 0 0 0 0 0 0 0 0 0.25 0"/>
<feBlend mode="normal" in2="BackgroundImageFix" result="effect1_dropShadow_69_60"/>
<feBlend mode="normal" in="SourceGraphic" in2="effect1_dropShadow_69_60" result="shape"/>
</filter>
</defs>
</svg>
