<svg width="54" height="54" viewBox="0 0 54 54" fill="none" xmlns="http://www.w3.org/2000/svg">
<path d="M38.7606 13H15.3925C14.1156 13 13 13.9187 13 15.1806V38.6006C13 39.8694 14.1156 41 15.3925 41H38.7537C40.0375 41 41 39.8619 41 38.6006V15.1806C41.0075 13.9187 40.0375 13 38.7606 13ZM21.6794 36.3394H17.6681V23.8675H21.6794V36.3394ZM19.8125 21.9712H19.7837C18.5 21.9712 17.6687 21.0156 17.6687 19.8194C17.6687 18.6013 18.5219 17.6681 19.8344 17.6681C21.1469 17.6681 21.95 18.5944 21.9788 19.8194C21.9781 21.0156 21.1469 21.9712 19.8125 21.9712ZM36.3394 36.3394H32.3281V29.52C32.3281 27.8863 31.7444 26.77 30.2931 26.77C29.1844 26.77 28.5281 27.52 28.2362 28.2506C28.1269 28.5131 28.0975 28.8706 28.0975 29.2356V36.3394H24.0863V23.8675H28.0975V25.6031C28.6812 24.7719 29.5931 23.5756 31.715 23.5756C34.3481 23.5756 36.34 25.3113 36.34 29.0531L36.3394 36.3394Z" fill="url(#paint0_linear_202_61)"/>
<rect x="1" y="1" width="52" height="52" rx="26" stroke="url(#paint1_linear_202_61)" stroke-width="2"/>
<defs>
<linearGradient id="paint0_linear_202_61" x1="27" y1="13" x2="27" y2="41" gradientUnits="userSpaceOnUse">
<stop stop-color="#FFECB3"/>
<stop offset="0.9999" stop-color="#FABC05"/>
<stop offset="1" stop-color="#FAC013"/>
</linearGradient>
<linearGradient id="paint1_linear_202_61" x1="27" y1="2" x2="27" y2="52" gradientUnits="userSpaceOnUse">
<stop stop-color="#FFECB2"/>
<stop offset="1" stop-color="#FABC05"/>
</linearGradient>
</defs>
</svg>
