<svg width="58" height="58" viewBox="0 0 58 58" fill="none" xmlns="http://www.w3.org/2000/svg">
<g filter="url(#filter0_d_69_59)">
<rect x="4" width="50" height="50" rx="25" fill="#292929" fill-opacity="0.5" shape-rendering="crispEdges"/>
</g>
<path d="M40.7606 11H17.3925C16.1156 11 15 11.9187 15 13.1806V36.6006C15 37.8694 16.1156 39 17.3925 39H40.7537C42.0375 39 43 37.8619 43 36.6006V13.1806C43.0075 11.9187 42.0375 11 40.7606 11ZM23.6794 34.3394H19.6681V21.8675H23.6794V34.3394ZM21.8125 19.9712H21.7837C20.5 19.9712 19.6687 19.0156 19.6687 17.8194C19.6687 16.6013 20.5219 15.6681 21.8344 15.6681C23.1469 15.6681 23.95 16.5944 23.9788 17.8194C23.9781 19.0156 23.1469 19.9712 21.8125 19.9712ZM38.3394 34.3394H34.3281V27.52C34.3281 25.8863 33.7444 24.77 32.2931 24.77C31.1844 24.77 30.5281 25.52 30.2362 26.2506C30.1269 26.5131 30.0975 26.8706 30.0975 27.2356V34.3394H26.0863V21.8675H30.0975V23.6031C30.6812 22.7719 31.5931 21.5756 33.715 21.5756C36.3481 21.5756 38.34 23.3113 38.34 27.0531L38.3394 34.3394Z" fill="#E6B200"/>
<defs>
<filter id="filter0_d_69_59" x="0" y="0" width="58" height="58" filterUnits="userSpaceOnUse" color-interpolation-filters="sRGB">
<feFlood flood-opacity="0" result="BackgroundImageFix"/>
<feColorMatrix in="SourceAlpha" type="matrix" values="0 0 0 0 0 0 0 0 0 0 0 0 0 0 0 0 0 0 127 0" result="hardAlpha"/>
<feOffset dy="4"/>
<feGaussianBlur stdDeviation="2"/>
<feComposite in2="hardAlpha" operator="out"/>
<feColorMatrix type="matrix" values="0 0 0 0 0 0 0 0 0 0 0 0 0 0 0 0 0 0 0.25 0"/>
<feBlend mode="normal" in2="BackgroundImageFix" result="effect1_dropShadow_69_59"/>
<feBlend mode="normal" in="SourceGraphic" in2="effect1_dropShadow_69_59" result="shape"/>
</filter>
</defs>
</svg>
