<svg width="53" height="53" viewBox="0 0 53 53" fill="none" xmlns="http://www.w3.org/2000/svg">
<path d="M39.625 38.2337V14.3987L23.875 26.3162M0.827501 19.1237C0.446514 18.7163 0.230233 18.1821 0.220534 17.6244C0.210835 17.0668 0.408409 16.5253 0.775001 16.105L3.925 13.1912C4.45 12.7187 5.73625 12.5087 6.68125 13.1912L15.6588 20.0425L36.475 1.01121C37.315 0.171207 38.7588 -0.170042 40.4125 0.696208L50.9125 5.70996C51.8575 6.26121 52.75 7.12746 52.75 8.72871V44.1662C52.75 45.2162 51.9887 46.345 51.175 46.7912L39.625 52.3037C38.785 52.645 37.21 52.33 36.6588 51.7787L15.6063 32.6162L6.68125 39.4412C5.68375 40.1237 4.45 39.94 3.925 39.4412L0.775001 36.5537C-0.0649987 35.6875 0.0400012 34.27 0.906251 33.4037L8.78125 26.3162" fill="#FABC05"/>
</svg>
