<svg width="50" height="50" viewBox="0 0 50 50" fill="none" xmlns="http://www.w3.org/2000/svg">
<path d="M35.4167 34.3125V15.3959L22.9167 24.8542M4.62501 19.1459C4.32264 18.8226 4.15098 18.3986 4.14329 17.956C4.13559 17.5134 4.29239 17.0837 4.58334 16.75L7.08334 14.4375C7.50001 14.0625 8.52084 13.8959 9.27084 14.4375L16.3958 19.875L32.9167 4.77087C33.5833 4.1042 34.7292 3.83337 36.0417 4.52087L44.375 8.50004C45.125 8.93754 45.8333 9.62504 45.8333 10.8959V39.0209C45.8333 39.8542 45.2292 40.75 44.5833 41.1042L35.4167 45.4792C34.75 45.75 33.5 45.5 33.0625 45.0625L16.3542 29.8542L9.27084 35.2709C8.47917 35.8125 7.50001 35.6667 7.08334 35.2709L4.58334 32.9792C3.91667 32.2917 4.00001 31.1667 4.68751 30.4792L10.9375 24.8542" fill="#FABC05"/>
</svg>
